Coordinates
version=1
nRows=20
nColumns=34
inDegrees=yes

Units are S.I. units (second, meters, Newtons, ...)
Angles are in degrees.

endheader
time	pelvis_tilt	pelvis_list	pelvis_rotation	pelvis_tx	pelvis_ty	pelvis_tz	hip_flexion_r	hip_adduction_r	hip_rotation_r	knee_angle_r	ankle_angle_r	subtalar_angle_r	mtp_angle_r	hip_flexion_l	hip_adduction_l	hip_rotation_l	knee_angle_l	socket_flexion	socket_adduction	socket_rotation	socket_tx	socket_ty	socket_tz	pros_ankle_rx	pros_ankle_ry	pros_ankle_rz	pros_ankle_tx	pros_ankle_ty	pros_ankle_tz	foot_flex	lumbar_extension	lumbar_bending	lumbar_rotation
      0.59583333	      1.38819537	     -5.64152471	      7.85730287	      0.02864836	      1.02212883	      0.36927341	     17.26903120	      4.85495244	    -11.86795309	      4.73601863	     13.02197616	      7.97462204	      3.90512646	    -18.13613647	     -9.05050164	    -10.76233599	    -12.63067309	      0.53772963	     -1.16819917	     13.23392930	      0.00000000	     -0.01005255	      0.00000000	      0.00000000	      0.00000000	      0.00000000	      0.00000000	      0.00000000	      0.00000000	     14.28090012	    -20.86117123	      0.08301068	     -5.59537695
      0.60000000	      1.38088202	     -5.72378106	      8.01012954	      0.03464316	      1.02093065	      0.36932674	     17.49702172	      4.90049945	    -11.73347835	      4.32510652	     12.56337399	      7.94880417	      4.00563430	    -18.32201474	     -9.26054127	    -10.73257136	    -12.81463299	      0.64849552	     -1.15583714	     13.26149322	      0.00000000	     -0.01012110	      0.00000000	      0.00000000	      0.00000000	      0.00000000	      0.00000000	      0.00000000	      0.00000000	     14.39962179	    -20.87589234	      0.36051076	     -5.66401077
      0.60416667	      1.39106691	     -5.77348672	      8.22034482	      0.04083219	      1.01988552	      0.36936374	     17.59883894	      4.91978900	    -11.52452935	      4.01240931	     12.33071929	      7.97032598	      4.04790806	    -18.51898070	     -9.46718584	    -10.63167414	    -12.97685183	      0.78673689	     -1.14490687	     13.34105891	      0.00000000	     -0.01003873	      0.00000000	      0.00000000	      0.00000000	      0.00000000	      0.00000000	      0.00000000	      0.00000000	     14.43772873	    -20.82699369	      0.44568427	     -5.68392448
      0.60833333	      1.37825043	     -5.94569698	      8.34266643	      0.04685590	      1.01866276	      0.36942779	     17.92644834	      5.04905440	    -11.48371677	      3.36648862	     11.59826239	      7.83180434	      4.27616198	    -18.66608939	     -9.76022644	    -10.63462923	    -13.22703575	      0.88927924	     -1.12730545	     13.29101706	      0.00000000	     -0.01032353	      0.00000000	      0.00000000	      0.00000000	      0.00000000	      0.00000000	      0.00000000	      0.00000000	     14.50199414	    -20.89392767	      0.85912430	     -5.75856626
      0.61250000	      1.39474703	     -6.06804691	      8.50873945	      0.05297846	      1.01763362	      0.36946973	     18.13471112	      5.13372366	    -11.33481428	      2.79419350	     11.06162382	      7.74726795	      4.48859910	    -18.82797680	    -10.02450762	    -10.56911862	    -13.48624363	      0.99892859	     -1.12005895	     13.29186014	      0.00000000	     -0.01042249	      0.00000000	      0.00000000	      0.00000000	      0.00000000	      0.00000000	      0.00000000	      0.00000000	     14.55256145	    -20.86722399	      1.12735256	     -5.78693736
      0.61666667	      1.25479991	     -6.36838578	      8.75950222	      0.05917618	      1.01616462	      0.36957709	     18.53084050	      5.35085541	    -11.46535789	      2.29419869	      9.71004057	      7.32525975	      9.59387279	    -18.36420263	    -10.62675320	    -10.90964909	    -15.02215280	      0.35436085	     -1.35974759	     13.82209688	      0.00000000	     -0.01048481	      0.00000000	      0.00000000	      0.00000000	      0.00000000	      0.00000000	      0.00000000	      0.00000000	     14.55793517	    -20.63497633	      1.57546954	     -5.81224951
      0.62083333	      1.32807045	     -6.48792794	      8.83899670	      0.06523264	      1.01535406	      0.36977008	     18.75453119	      5.45548243	    -11.28709532	      1.50487509	      9.15006566	      7.27101759	      9.60289597	    -18.58863165	    -10.85103996	    -10.84696659	    -15.23749668	      0.56308411	     -1.33013936	     13.69427992	      0.00000000	     -0.01061469	      0.00000000	      0.00000000	      0.00000000	      0.00000000	      0.00000000	      0.00000000	      0.00000000	     14.55406647	    -20.70051195	      1.84830428	     -5.82632605
      0.62500000	      1.39621278	     -6.63423300	      8.93072687	      0.07132513	      1.01456621	      0.36999163	     18.99109425	      5.58523579	    -11.13145277	      0.67630483	      8.56795840	      7.18378861	      9.63170324	    -18.78686046	    -11.11550096	    -10.75838653	    -15.47504084	      0.78172583	     -1.28674036	     13.58819389	      0.00000000	     -0.01082855	      0.00000000	      0.00000000	      0.00000000	      0.00000000	      0.00000000	      0.00000000	      0.00000000	     14.52645385	    -20.75862832	      2.11094910	     -5.79671104
      0.62916667	      1.43821622	     -6.83006734	      8.97567220	      0.07738731	      1.01378127	      0.37023322	     19.32791014	      5.75646344	    -11.07376335	     -0.29745396	      7.86935696	      6.98643047	      9.72411446	    -18.92545366	    -11.40221292	    -10.69277043	    -15.77500712	      1.01502244	     -1.26409008	     13.39717117	      0.00000000	     -0.01112744	      0.00000000	      0.00000000	      0.00000000	      0.00000000	      0.00000000	      0.00000000	      0.00000000	     14.46094303	    -20.87142537	      2.45904374	     -5.69740964
      0.63333333	      1.13255611	     -7.07228745	      9.05760381	      0.08329336	      1.01242614	      0.37056626	     20.03930197	      5.91234144	    -10.86974369	     -1.25317510	      6.94032580	      6.23114241	     11.45317884	    -18.33531711	    -11.78299380	    -10.60571272	    -16.97798827	      0.73915585	     -1.39618028	     13.34521752	      0.00000000	     -0.01138368	      0.00000000	      0.00000000	      0.00000000	      0.00000000	      0.00000000	      0.00000000	      0.00000000	     14.36080411	    -20.48489807	      2.74487025	     -5.51754509
      0.63750000	      1.26643064	     -7.26317797	      9.04835620	      0.08941227	      1.01192936	      0.37092455	     20.25522339	      6.11937167	    -10.75523743	     -2.24239022	      6.33562647	      6.14504397	     11.47836044	    -18.56739207	    -12.05605806	    -10.57062572	    -17.29286495	      1.00621246	     -1.36979566	     13.13812902	      0.00000000	     -0.01167755	      0.00000000	      0.00000000	      0.00000000	      0.00000000	      0.00000000	      0.00000000	      0.00000000	     14.24530419	    -20.61182775	      3.08329363	     -5.46376139
      0.64166667	      1.37302143	     -7.48131892	      9.04854227	      0.09550029	      1.01144422	      0.37130431	     20.54356406	      6.33321715	    -10.72238389	     -3.33070435	      5.73584646	      5.96601380	     11.54286797	    -18.72335317	    -12.35885281	    -10.52893285	    -17.66443593	      1.28088613	     -1.33271517	     12.90901818	      0.00000000	     -0.01208562	      0.00000000	      0.00000000	      0.00000000	      0.00000000	      0.00000000	      0.00000000	      0.00000000	     14.08756512	    -20.77823526	      3.43525305	     -5.30745026
      0.64583333	      1.47650715	     -7.71002060	      9.01521451	      0.10161906	      1.01102073	      0.37169759	     20.82509611	      6.56506450	    -10.67390285	     -4.42575399	      5.18858480	      5.78296535	     11.61720512	    -18.85507282	    -12.65146747	    -10.47677288	    -18.09298549	      1.54956796	     -1.31787604	     12.63416551	      0.00000000	     -0.01252502	      0.00000000	      0.00000000	      0.00000000	      0.00000000	      0.00000000	      0.00000000	      0.00000000	     13.88351228	    -20.89882826	      3.77680346	     -5.13256762
      0.65000000	      1.52494275	     -7.94463503	      9.00036589	      0.10765412	      1.01056136	      0.37217207	     21.20211742	      6.78085500	    -10.68560388	     -5.60533184	      4.71495644	      5.50392086	     11.79483265	    -18.83490752	    -12.97053740	    -10.38434765	    -18.69239190	      1.77222724	     -1.29406082	     12.37422740	      0.00000000	     -0.01304135	      0.00000000	      0.00000000	      0.00000000	      0.00000000	      0.00000000	      0.00000000	      0.00000000	     13.66797444	    -21.01989836	      4.12418135	     -4.78992295
      0.65416667	      1.20938734	     -8.26560109	      8.96573005	      0.11360767	      1.00940030	      0.37282610	     22.00061957	      7.02280907	    -10.65895242	     -6.81374779	      4.21620725	      5.03792670	     13.02317676	    -17.90005733	    -13.46748139	    -10.53080903	    -20.78112567	      1.09035065	     -1.59265930	     12.45460038	      0.00000000	     -0.01309294	      0.00000000	      0.00000000	      0.00000000	      0.00000000	      0.00000000	      0.00000000	      0.00000000	     13.35640195	    -20.55250766	      4.50168695	     -4.53649464
      0.65833333	      1.33830913	     -8.50452368	      8.87975635	      0.11980990	      1.00926492	      0.37338428	     22.19115704	      7.29766753	    -10.60460657	     -7.85592365	      3.77956720	      4.90706624	     13.02988129	    -18.02365290	    -13.75005839	    -10.47899701	    -21.22556528	      1.46771547	     -1.53815724	     12.11394163	      0.00000000	     -0.01366004	      0.00000000	      0.00000000	      0.00000000	      0.00000000	      0.00000000	      0.00000000	      0.00000000	     13.05284473	    -20.75922742	      4.80418452	     -4.37858888
      0.66250000	      1.44077197	     -8.74251836	      8.81566794	      0.12590158	      1.00910880	      0.37390394	     22.45079005	      7.53643718	    -10.64920441	     -8.98974865	      3.52359924	      4.66057569	     13.08241639	    -17.98685419	    -14.04090747	    -10.32394845	    -21.96561483	      1.68263306	     -1.52757474	     11.71664163	      0.00000000	     -0.01420669	      0.00000000	      0.00000000	      0.00000000	      0.00000000	      0.00000000	      0.00000000	      0.00000000	     12.67633813	    -20.91353893	      5.10072539	     -3.92034805
      0.66666667	      1.54134561	     -8.98068512	      8.67145889	      0.13219522	      1.00906395	      0.37454116	     22.62333407	      7.81975646	    -10.58218112	     -9.98638766	      3.18019676	      4.55315769	     13.07924444	    -18.02864901	    -14.29558636	    -10.27998724	    -22.54399977	      2.02710912	     -1.48943091	     11.32166482	      0.00000000	     -0.01480840	      0.00000000	      0.00000000	      0.00000000	      0.00000000	      0.00000000	      0.00000000	      0.00000000	     12.26425505	    -21.04504103	      5.43750821	     -3.78425958
      0.67083333	      1.65992270	     -9.21760505	      8.53091704	      0.13853725	      1.00913321	      0.37519900	     22.74206464	      8.10513991	    -10.54888006	    -10.94086155	      2.91400585	      4.43405581	     13.07069201	    -18.06711760	    -14.54848068	    -10.20719964	    -23.14669456	      2.36958434	     -1.43765271	     10.89470429	      0.00000000	     -0.01545010	      0.00000000	      0.00000000	      0.00000000	      0.00000000	      0.00000000	      0.00000000	      0.00000000	     11.77092485	    -21.14952203	      5.73598078	     -3.60214187
      0.67500000	      1.35888204	     -9.53840719	      8.50796463	      0.14435822	      1.00831334	      0.37595110	     23.43120986	      8.35259627	    -10.62687873	    -12.06468517	      2.86232008	      4.10454608	     12.83241549	    -16.88893688	    -15.06097058	    -10.14258546	    -25.62833571	      1.64752989	     -1.71249750	     10.80487262	      0.00000000	     -0.01535401	      0.00000000	      0.00000000	      0.00000000	      0.00000000	      0.00000000	      0.00000000	      0.00000000	     11.29131910	    -20.86645143	      6.07286807	     -3.20985290
